<svg width="512" height="512" viewBox="0 0 512 512" fill="none" xmlns="http://www.w3.org/2000/svg">
<path d="M220.77 493.84C223.938 494.034 226.358 496.688 226.172 499.766C225.987 502.844 223.267 505.181 220.099 504.988C216.931 504.794 214.512 502.142 214.697 499.064C214.882 495.986 217.602 493.647 220.77 493.84ZM181.282 480.238C187.618 480.626 192.455 485.93 192.084 492.086C191.714 498.242 186.276 502.918 179.939 502.531C173.602 502.143 168.765 496.838 169.135 490.682C169.506 484.526 174.945 479.85 181.282 480.238ZM322.65 411.206C348.016 410.213 369.499 429.396 370.634 454.049C371.769 478.703 352.126 499.492 326.76 500.485C301.394 501.477 279.91 482.296 278.775 457.642C277.64 432.989 297.284 412.198 322.65 411.206ZM113.101 464.877C113.842 452.564 124.718 443.212 137.392 443.988C150.066 444.764 159.739 455.373 158.999 467.685C158.257 479.997 147.382 489.349 134.708 488.574C122.034 487.798 112.36 477.188 113.101 464.877ZM230.811 414.801C249.835 414.058 265.948 428.443 266.799 446.932C267.651 465.422 252.918 481.017 233.893 481.761C214.869 482.505 198.755 468.118 197.904 449.629C197.053 431.139 211.787 415.546 230.811 414.801ZM413.469 385.287C432.493 384.543 448.606 398.93 449.458 417.42C450.308 435.909 435.576 451.5 416.552 452.245C397.528 452.989 381.415 438.604 380.563 420.114C379.712 401.624 394.445 386.031 413.469 385.287ZM47.6167 404.928C48.7287 386.46 65.0406 372.431 84.0513 373.594C103.062 374.758 117.574 390.675 116.462 409.143C115.35 427.611 99.0366 441.638 80.0259 440.475C61.0151 439.311 46.5053 423.397 47.6167 404.928ZM160.899 395.173C173.582 394.677 184.323 404.268 184.891 416.594C185.458 428.921 175.637 439.317 162.955 439.813C150.272 440.309 139.53 430.718 138.962 418.391C138.395 406.065 148.216 395.67 160.899 395.173ZM313.594 388.951C316.761 389.166 319.16 391.836 318.953 394.913C318.745 397.989 316.009 400.308 312.842 400.092C309.676 399.877 307.277 397.208 307.484 394.131C307.692 391.055 310.427 388.735 313.594 388.951ZM355.237 369.398C361.571 369.829 366.37 375.167 365.956 381.32C365.541 387.473 360.068 392.112 353.734 391.681C347.4 391.25 342.601 385.913 343.016 379.759C343.431 373.607 348.903 368.967 355.237 369.398ZM124.911 363.037C131.252 362.789 136.623 367.585 136.907 373.748C137.19 379.911 132.28 385.108 125.939 385.357C119.598 385.605 114.226 380.809 113.942 374.646C113.658 368.483 118.569 363.285 124.911 363.037ZM468.824 338.4C481.506 337.904 492.248 347.493 492.816 359.819C493.384 372.146 483.561 382.541 470.878 383.038C458.196 383.533 447.454 373.943 446.886 361.617C446.319 349.29 456.141 338.896 468.824 338.4ZM379.686 348.675C380.516 336.369 391.459 327.092 404.127 327.954C416.796 328.816 426.393 339.491 425.563 351.797C424.733 364.104 413.79 373.381 401.122 372.519C388.453 371.657 378.856 360.982 379.686 348.675ZM7.08057 312.937C8.56298 288.313 30.3127 269.608 55.6606 271.159C81.0087 272.71 100.357 293.931 98.8755 318.555C97.393 343.18 75.6413 361.884 50.2935 360.333C24.9456 358.781 5.59874 337.561 7.08057 312.937ZM106.141 330.231C109.312 330.107 111.998 332.506 112.14 335.588C112.281 338.669 109.826 341.266 106.656 341.39C103.485 341.514 100.8 339.117 100.658 336.036C100.516 332.955 102.971 330.356 106.141 330.231ZM210.541 184.173C210.541 176.451 218.877 171.613 225.531 175.474L351.681 248.677C358.322 252.531 358.306 262.164 351.652 266.025L225.501 339.231C218.848 343.092 210.54 338.289 210.54 330.582L210.541 184.173ZM490.245 304.017C496.586 303.769 501.957 308.564 502.242 314.727C502.525 320.89 497.613 326.088 491.272 326.337C484.931 326.584 479.561 321.788 479.277 315.626C478.993 309.463 483.903 304.265 490.245 304.017ZM407.137 283.388C408.382 264.929 424.797 251.012 443.799 252.304C462.802 253.597 477.199 269.61 475.955 288.07C474.71 306.53 458.294 320.446 439.292 319.153C420.289 317.86 405.893 301.848 407.137 283.388ZM494.445 270.317C497.615 270.193 500.301 272.59 500.443 275.672C500.585 278.753 498.129 281.352 494.958 281.476C491.788 281.6 489.102 279.202 488.959 276.121C488.818 273.039 491.274 270.441 494.445 270.317ZM35.395 225.175C36.5068 206.707 52.8198 192.678 71.8306 193.841C90.8413 195.005 105.352 210.92 104.241 229.388C103.129 247.857 86.8161 261.886 67.8052 260.722C48.7943 259.559 34.2837 243.644 35.395 225.175ZM413.145 194.263C414.805 169.65 436.691 151.094 462.028 152.818C487.365 154.542 506.559 175.893 504.9 200.505C503.24 225.119 481.354 243.674 456.017 241.95C430.68 240.225 411.486 218.876 413.145 194.263ZM16.7896 228.64C19.961 228.538 22.6289 230.954 22.7485 234.037C22.8679 237.119 20.3936 239.701 17.2222 239.803C14.0508 239.906 11.383 237.489 11.2632 234.407C11.1437 231.325 13.6181 228.743 16.7896 228.64ZM20.7983 183.808C27.1413 183.604 32.4775 188.435 32.7173 194.599C32.9565 200.764 28.0086 205.928 21.6655 206.133C15.3223 206.338 9.98618 201.506 9.74658 195.341C9.50757 189.177 14.4552 184.013 20.7983 183.808ZM85.3228 161.103C86.0641 148.791 96.9408 139.437 109.615 140.213C122.289 140.988 131.962 151.601 131.221 163.913C130.48 176.224 119.605 185.577 106.931 184.801C94.2573 184.026 84.582 173.415 85.3228 161.103ZM405.53 171.377C408.701 171.274 411.37 173.691 411.49 176.773C411.609 179.855 409.136 182.436 405.964 182.539C402.793 182.641 400.123 180.226 400.003 177.144C399.884 174.062 402.358 171.479 405.53 171.377ZM41.6011 127.25C54.2877 126.84 64.9619 136.502 65.4409 148.832C65.9195 161.161 56.0221 171.489 43.3354 171.899C30.649 172.309 19.9757 162.646 19.4966 150.316C19.0181 137.987 28.9148 127.66 41.6011 127.25ZM386.564 127.283C392.907 127.078 398.244 131.909 398.484 138.074C398.723 144.239 393.774 149.403 387.431 149.608C381.088 149.813 375.752 144.982 375.512 138.817C375.273 132.652 380.221 127.488 386.564 127.283ZM156.856 120.727C163.193 121.115 168.029 126.422 167.659 132.578C167.288 138.734 161.85 143.41 155.513 143.022C149.177 142.634 144.34 137.328 144.71 131.172C145.081 125.017 150.519 120.34 156.856 120.727ZM396.216 103.561C397.461 85.1015 413.876 71.1855 432.878 72.4781C451.881 73.7712 466.277 89.7831 465.033 108.243C463.788 126.702 447.374 140.619 428.372 139.327C409.369 138.034 394.972 122.021 396.216 103.561ZM96.4331 58.4108C115.463 57.7964 131.473 72.291 132.191 90.7858C132.909 109.28 118.064 124.771 99.0337 125.385C80.0039 126 63.9942 111.506 63.2759 93.0114C62.5579 74.5167 77.4033 59.0257 96.4331 58.4108ZM197.683 112.04C200.851 112.234 203.27 114.887 203.084 117.964C202.899 121.042 200.18 123.381 197.012 123.187C193.844 122.993 191.426 120.34 191.611 117.262C191.796 114.185 194.515 111.846 197.683 112.04ZM349.938 72.5739C362.624 72.1642 373.297 81.8273 373.776 94.1569C374.254 106.487 364.358 116.814 351.671 117.224C338.985 117.634 328.313 107.972 327.833 95.6422C327.355 83.3123 337.251 72.9838 349.938 72.5739ZM186.572 10.7906C211.945 9.97117 233.291 29.2978 234.249 53.9576C235.206 78.6171 215.413 99.2725 190.04 100.092C164.666 100.912 143.32 81.5843 142.363 56.9244C141.406 32.2649 161.199 11.6104 186.572 10.7906ZM279.305 30.1481C298.335 29.5335 314.345 44.0282 315.063 62.5231C315.781 81.0176 300.935 96.5078 281.905 97.1227C262.875 97.737 246.866 83.2432 246.148 64.7487C245.43 46.2539 260.275 30.7629 279.305 30.1481ZM354.094 44.7311C354.924 32.425 365.868 23.1468 378.536 24.0084C391.204 24.8704 400.801 35.5475 399.971 47.8541C399.141 60.1602 388.199 69.4367 375.531 68.5748C362.862 67.7126 353.265 57.0374 354.094 44.7311ZM333.405 9.74475C339.739 10.176 344.537 15.5137 344.123 21.6666C343.707 27.8197 338.235 32.4587 331.901 32.028C325.567 31.5969 320.768 26.2591 321.183 20.1061C321.598 13.953 327.071 9.31395 333.405 9.74475ZM293.261 7.01428C296.428 7.22984 298.828 9.89883 298.621 12.9752C298.413 16.0515 295.677 18.371 292.51 18.1559C289.343 17.9404 286.944 15.2714 287.151 12.1949C287.359 9.11868 290.094 6.79916 293.261 7.01428Z" fill="url(#paint0_linear_72_154)"/>
<defs>
<linearGradient id="paint0_linear_72_154" x1="256" y1="7.00061" x2="256" y2="504.999" gradientUnits="userSpaceOnUse">
<stop stop-color="#F4C98E"/>
<stop offset="1" stop-color="#8E7553"/>
</linearGradient>
</defs>
</svg>
